PathFileType	4	(X/Y/Z)	C:/Users/opensim2020/Desktop/walking_exp_matlab/subject01_walking04_straight_02.trc	
DataRate	CameraRate	NumFrames	NumMarkers	Units	OrigDataRate	OrigDataStartFrame	OrigNumFrames	
100.00	100.00	4	43	mm	100.00	1548	261	
Frame#	Time	LFHD			RFHD			LBHD			RBHD			C7			T10			CLAV			STRN			RBAK			LSHO			LUPA			LELB			LFRM			LWRA			LWRB			LFIN			RSHO			RUPA			RELB			RFRM			RWRA			RWRB			RFIN			LASI			RASI			LPSI			RPSI			LTHI			LKNE			LTIB			LANK			LHEE			LTOE			RTHI			RKNE			RTIB			RANK			RHEE			RTOE			*39			*40			*41			*42			
		X1	Y1	Z1	X2	Y2	Z2	X3	Y3	Z3	X4	Y4	Z4	X5	Y5	Z5	X6	Y6	Z6	X7	Y7	Z7	X8	Y8	Z8	X9	Y9	Z9	X10	Y10	Z10	X11	Y11	Z11	X12	Y12	Z12	X13	Y13	Z13	X14	Y14	Z14	X15	Y15	Z15	X16	Y16	Z16	X17	Y17	Z17	X18	Y18	Z18	X19	Y19	Z19	X20	Y20	Z20	X21	Y21	Z21	X22	Y22	Z22	X23	Y23	Z23	X24	Y24	Z24	X25	Y25	Z25	X26	Y26	Z26	X27	Y27	Z27	X28	Y28	Z28	X29	Y29	Z29	X30	Y30	Z30	X31	Y31	Z31	X32	Y32	Z32	X33	Y33	Z33	X34	Y34	Z34	X35	Y35	Z35	X36	Y36	Z36	X37	Y37	Z37	X38	Y38	Z38	X39	Y39	Z39	X40	Y40	Z40	X41	Y41	Z41	X42	Y42	Z42	X43	Y43	Z43	

131	1.300	1494.49719	502.63049	1666.95898	1382.60425	479.47214	1671.70947	1476.98218	619.03998	1623.22217	1357.80457	598.05109	1627.21313	1439.17249	656.65131	1427.06104	1429.32288	679.20404	1131.50085	1438.17383	511.46762	1364.19128	1445.05383	460.14914	1212.98193	1363.33521	701.05322	1227.09314	1599.77893	573.42267	1387.82056	1689.45862	586.28754	1206.35303	1704.53394	576.02924	1053.69861	1730.42517	486.41766	978.92426	1713.60205	357.81760	926.44153	1737.22351	401.51822	892.26617	1749.30432	324.43735	860.56287	1285.47632	575.82196	1388.05798	1190.62024	646.58008	1190.13953	1188.13342	656.23920	1067.64563	1154.99939	649.42908	949.25995	1168.23694	590.05450	819.90070	1130.76855	634.66168	829.28571	1132.38281	612.35352	745.51929	1544.45837	503.21103	926.68445	1330.40991	483.56497	934.88177	1476.82568	684.34509	943.79279	1331.11780	669.36914	947.28204	1605.82263	576.40887	595.67993	1599.71228	610.96387	464.78134	1600.42639	764.00366	353.74533	1547.92773	915.22632	191.58873	1491.01929	950.97467	211.92343	1528.52612	876.32288	45.79401	1277.85388	479.02649	605.64691	1313.85095	440.10559	453.86569	1306.50378	469.71445	279.02646	1359.22156	478.35568	75.49137	1402.95276	530.29449	37.55805	1378.72400	337.04135	37.53866	1403.88623	493.28000	1705.59729	-3102.03784	1973.02246	1023.82544	-3140.59473	2012.54309	1021.92163			 
132	1.310	1492.58447	492.36462	1668.03467	1380.73376	469.02853	1672.47278	1475.11169	608.71747	1624.24878	1355.92896	587.57288	1627.89868	1437.50854	646.30145	1427.99500	1428.29980	668.76270	1132.46411	1437.03162	501.04617	1365.16858	1444.33630	449.62900	1214.09570	1361.53674	690.18750	1228.02917	1598.42908	563.57410	1389.10120	1688.16187	577.77820	1207.52515	1702.02283	569.44934	1054.58582	1728.17310	481.30099	978.04565	1711.60400	353.44623	923.15991	1735.06738	397.91049	889.82574	1747.09668	321.58939	856.37537	1284.10315	564.73016	1389.00940	1189.01257	634.46466	1190.82275	1186.59534	643.25854	1068.17468	1153.46240	635.16052	949.78827	1167.00012	574.56702	820.93671	1129.47046	619.03845	829.95593	1131.19348	596.15570	746.31000	1543.42944	492.50180	927.86993	1329.17603	472.98651	936.13971	1476.31824	673.62927	944.17133	1330.62231	658.96436	948.22943	1605.99268	558.51257	595.04443	1600.61230	590.32031	463.72113	1601.28101	743.83185	354.85818	1547.89172	899.17133	198.25146	1491.00549	934.29468	220.27112	1528.80066	865.85358	50.62458	1277.17957	473.70328	605.53949	1312.74158	435.35718	453.39545	1305.94397	467.49411	278.85861	1359.14734	478.20380	75.48038	1402.93396	530.27148	37.76293	1378.82593	336.80249	37.20131	1401.83752	482.91025	1706.42407	-3101.92261	1973.28748	1023.23419	-3140.61572	2012.47839	1021.83008			 
133	1.320	1490.71655	482.00690	1669.18628	1378.84778	458.59979	1673.23352	1473.32251	598.36438	1625.36584	1354.16760	577.12079	1628.62073	1435.88757	635.95099	1429.01465	1427.28638	658.36737	1133.49170	1436.10107	490.71588	1366.20898	1443.75366	439.34286	1215.11035	1359.59570	679.42096	1229.06848	1597.24548	553.83893	1390.38184	1686.82422	569.49255	1208.65027	1699.54163	562.96667	1055.42957	1725.86292	476.35150	976.97418	1709.53857	349.35394	919.75494	1732.71643	394.62296	887.21198	1744.71838	318.92987	852.08972	1282.88745	553.52350	1389.84558	1187.41479	622.33276	1191.39612	1185.01257	630.30200	1068.62708	1151.98389	620.86725	950.21539	1165.88025	558.86359	822.04974	1128.19043	603.27557	830.61694	1130.05737	579.45117	747.20404	1542.62683	482.14279	928.96106	1327.85254	462.57178	937.06812	1475.76331	663.20642	944.40057	1330.12415	648.88354	949.20532	1605.90125	540.95117	594.74817	1601.17358	569.85669	463.00320	1602.31396	723.35327	355.33353	1546.54553	882.33551	204.47630	1489.22144	916.93817	227.33376	1529.74902	852.84406	55.75956	1276.86877	468.74042	605.76807	1311.90881	431.22748	452.97681	1305.37354	465.40152	278.76822	1359.04822	477.75714	75.35265	1402.94482	530.17896	38.07130	1378.99280	336.53323	37.00787	1399.80957	472.54578	1707.22632	-3101.96167	1973.11670	1023.96716	-3140.60791	2012.50928	1021.98163			 
134	1.330	1488.91772	471.57776	1670.30676	1377.10779	448.14694	1673.99976	1471.66772	588.01984	1626.51770	1352.48364	566.73254	1629.39746	1434.30481	625.54395	1430.04016	1426.13330	648.06244	1134.46838	1435.35815	480.49338	1367.26733	1443.29333	429.04691	1216.12915	1357.68567	668.77783	1230.18176	1596.18616	544.21918	1391.66345	1685.50574	561.45337	1209.77661	1697.16980	556.65924	1056.27112	1723.55566	471.59302	975.85449	1707.42493	345.54648	916.26923	1730.19250	391.64850	884.59088	1742.47034	316.65982	847.96954	1281.93701	542.40198	1390.80151	1185.66370	610.05078	1192.14026	1183.37646	617.37939	1069.03748	1150.49133	606.40259	950.54816	1164.82446	542.78851	823.25372	1127.02869	587.10577	831.12378	1128.96033	562.34680	748.17645	1541.90601	471.87234	929.95013	1327.01331	453.14874	937.81891	1475.15100	652.98950	944.52478	1329.67712	638.90344	949.97827	1605.69080	523.48853	594.98041	1601.29382	549.47241	462.57382	1603.40112	702.95728	355.76733	1545.08423	865.41162	210.96852	1486.67480	899.07550	233.08405	1531.30957	837.29614	61.43157	1276.59998	463.05893	605.35931	1311.15247	427.41879	452.52390	1304.89868	463.51004	278.59595	1359.05603	477.33798	75.55086	1403.20789	530.27863	38.53112	1379.05273	336.31720	36.81352	1397.98926	462.10425	1708.10571	-3101.94043	1973.13330	1023.38794	-3140.76440	2012.48120	1021.91589			 
